G04 #@! TF.GenerationSoftware,KiCad,Pcbnew,(5.1.2)-2*
G04 #@! TF.CreationDate,2019-08-09T21:51:40-03:00*
G04 #@! TF.ProjectId,Markg1,4d61726b-6731-42e6-9b69-6361645f7063,rev?*
G04 #@! TF.SameCoordinates,Original*
G04 #@! TF.FileFunction,Copper,L1,Top*
G04 #@! TF.FilePolarity,Positive*
%FSLAX46Y46*%
G04 Gerber Fmt 4.6, Leading zero omitted, Abs format (unit mm)*
G04 Created by KiCad (PCBNEW (5.1.2)-2) date 2019-08-09 21:51:40*
%MOMM*%
%LPD*%
G04 APERTURE LIST*
%ADD10C,0.050000*%
%ADD11O,1.400000X1.400000*%
%ADD12C,1.400000*%
%ADD13R,1.050000X1.500000*%
%ADD14O,1.050000X1.500000*%
%ADD15C,1.600000*%
%ADD16C,1.000000*%
G04 APERTURE END LIST*
D10*
X160020000Y-68580000D02*
X130810000Y-68580000D01*
X160020000Y-88900000D02*
X160020000Y-68580000D01*
X130810000Y-88900000D02*
X160020000Y-88900000D01*
X130810000Y-68580000D02*
X130810000Y-88900000D01*
D11*
X144780000Y-82550000D03*
D12*
X137160000Y-82550000D03*
D11*
X144780000Y-78440000D03*
D12*
X137160000Y-78440000D03*
D11*
X144780000Y-74930000D03*
D12*
X137160000Y-74930000D03*
D13*
X149000000Y-76970000D03*
D14*
X151540000Y-76970000D03*
X150270000Y-76970000D03*
D15*
X151090000Y-82550000D03*
X148590000Y-82550000D03*
D16*
X147790001Y-81750001D02*
X148590000Y-82550000D01*
X147189999Y-81149999D02*
X147790001Y-81750001D01*
X143379999Y-81149999D02*
X147189999Y-81149999D01*
X137160000Y-74930000D02*
X143379999Y-81149999D01*
X151540000Y-77195000D02*
X151540000Y-76970000D01*
X151540000Y-79150000D02*
X151540000Y-78720000D01*
X144780000Y-83820000D02*
X146050000Y-85090000D01*
X144780000Y-82550000D02*
X144780000Y-83820000D01*
X146050000Y-85090000D02*
X153670000Y-85090000D01*
X153670000Y-85090000D02*
X154940000Y-83820000D01*
X151540000Y-78720000D02*
X151540000Y-76970000D01*
X154940000Y-83820000D02*
X154940000Y-82550000D01*
X154940000Y-82550000D02*
X151540000Y-79150000D01*
X144780000Y-74930000D02*
X144780000Y-78440000D01*
X150270000Y-78720000D02*
X150270000Y-76970000D01*
X149850001Y-79139999D02*
X150270000Y-78720000D01*
X144780000Y-78440000D02*
X145479999Y-79139999D01*
X145479999Y-79139999D02*
X149850001Y-79139999D01*
X137160000Y-78440000D02*
X137160000Y-82550000D01*
M02*
