G04 #@! TF.GenerationSoftware,KiCad,Pcbnew,(5.1.2)-2*
G04 #@! TF.CreationDate,2019-08-09T21:51:40-03:00*
G04 #@! TF.ProjectId,Markg1,4d61726b-6731-42e6-9b69-6361645f7063,rev?*
G04 #@! TF.SameCoordinates,Original*
G04 #@! TF.FileFunction,Legend,Top*
G04 #@! TF.FilePolarity,Positive*
%FSLAX46Y46*%
G04 Gerber Fmt 4.6, Leading zero omitted, Abs format (unit mm)*
G04 Created by KiCad (PCBNEW (5.1.2)-2) date 2019-08-09 21:51:40*
%MOMM*%
%LPD*%
G04 APERTURE LIST*
%ADD10C,0.050000*%
%ADD11C,0.120000*%
%ADD12C,0.150000*%
G04 APERTURE END LIST*
D10*
X160020000Y-68580000D02*
X130810000Y-68580000D01*
X160020000Y-88900000D02*
X160020000Y-68580000D01*
X130810000Y-88900000D02*
X160020000Y-88900000D01*
X130810000Y-68580000D02*
X130810000Y-88900000D01*
D11*
X143840000Y-82550000D02*
X142890000Y-82550000D01*
X138100000Y-82550000D02*
X139050000Y-82550000D01*
X142890000Y-81630000D02*
X139050000Y-81630000D01*
X142890000Y-83470000D02*
X142890000Y-81630000D01*
X139050000Y-83470000D02*
X142890000Y-83470000D01*
X139050000Y-81630000D02*
X139050000Y-83470000D01*
X143840000Y-78440000D02*
X142890000Y-78440000D01*
X138100000Y-78440000D02*
X139050000Y-78440000D01*
X142890000Y-77520000D02*
X139050000Y-77520000D01*
X142890000Y-79360000D02*
X142890000Y-77520000D01*
X139050000Y-79360000D02*
X142890000Y-79360000D01*
X139050000Y-77520000D02*
X139050000Y-79360000D01*
X143840000Y-74930000D02*
X142890000Y-74930000D01*
X138100000Y-74930000D02*
X139050000Y-74930000D01*
X142890000Y-74010000D02*
X139050000Y-74010000D01*
X142890000Y-75850000D02*
X142890000Y-74010000D01*
X139050000Y-75850000D02*
X142890000Y-75850000D01*
X139050000Y-74010000D02*
X139050000Y-75850000D01*
X152108478Y-78808478D02*
G75*
G03X150270000Y-74370000I-1838478J1838478D01*
G01*
X148431522Y-78808478D02*
G75*
G02X150270000Y-74370000I1838478J1838478D01*
G01*
X148470000Y-78820000D02*
X152070000Y-78820000D01*
X151460000Y-83605000D02*
X151460000Y-83670000D01*
X151460000Y-81430000D02*
X151460000Y-81495000D01*
X148220000Y-83605000D02*
X148220000Y-83670000D01*
X148220000Y-81430000D02*
X148220000Y-81495000D01*
X148220000Y-83670000D02*
X151460000Y-83670000D01*
X148220000Y-81430000D02*
X151460000Y-81430000D01*
D12*
X140803333Y-81082380D02*
X140470000Y-80606190D01*
X140231904Y-81082380D02*
X140231904Y-80082380D01*
X140612857Y-80082380D01*
X140708095Y-80130000D01*
X140755714Y-80177619D01*
X140803333Y-80272857D01*
X140803333Y-80415714D01*
X140755714Y-80510952D01*
X140708095Y-80558571D01*
X140612857Y-80606190D01*
X140231904Y-80606190D01*
X141136666Y-80082380D02*
X141755714Y-80082380D01*
X141422380Y-80463333D01*
X141565238Y-80463333D01*
X141660476Y-80510952D01*
X141708095Y-80558571D01*
X141755714Y-80653809D01*
X141755714Y-80891904D01*
X141708095Y-80987142D01*
X141660476Y-81034761D01*
X141565238Y-81082380D01*
X141279523Y-81082380D01*
X141184285Y-81034761D01*
X141136666Y-80987142D01*
X140803333Y-76972380D02*
X140470000Y-76496190D01*
X140231904Y-76972380D02*
X140231904Y-75972380D01*
X140612857Y-75972380D01*
X140708095Y-76020000D01*
X140755714Y-76067619D01*
X140803333Y-76162857D01*
X140803333Y-76305714D01*
X140755714Y-76400952D01*
X140708095Y-76448571D01*
X140612857Y-76496190D01*
X140231904Y-76496190D01*
X141184285Y-76067619D02*
X141231904Y-76020000D01*
X141327142Y-75972380D01*
X141565238Y-75972380D01*
X141660476Y-76020000D01*
X141708095Y-76067619D01*
X141755714Y-76162857D01*
X141755714Y-76258095D01*
X141708095Y-76400952D01*
X141136666Y-76972380D01*
X141755714Y-76972380D01*
X140803333Y-73462380D02*
X140470000Y-72986190D01*
X140231904Y-73462380D02*
X140231904Y-72462380D01*
X140612857Y-72462380D01*
X140708095Y-72510000D01*
X140755714Y-72557619D01*
X140803333Y-72652857D01*
X140803333Y-72795714D01*
X140755714Y-72890952D01*
X140708095Y-72938571D01*
X140612857Y-72986190D01*
X140231904Y-72986190D01*
X141755714Y-73462380D02*
X141184285Y-73462380D01*
X141470000Y-73462380D02*
X141470000Y-72462380D01*
X141374761Y-72605238D01*
X141279523Y-72700476D01*
X141184285Y-72748095D01*
X150174761Y-73957619D02*
X150079523Y-73910000D01*
X149984285Y-73814761D01*
X149841428Y-73671904D01*
X149746190Y-73624285D01*
X149650952Y-73624285D01*
X149698571Y-73862380D02*
X149603333Y-73814761D01*
X149508095Y-73719523D01*
X149460476Y-73529047D01*
X149460476Y-73195714D01*
X149508095Y-73005238D01*
X149603333Y-72910000D01*
X149698571Y-72862380D01*
X149889047Y-72862380D01*
X149984285Y-72910000D01*
X150079523Y-73005238D01*
X150127142Y-73195714D01*
X150127142Y-73529047D01*
X150079523Y-73719523D01*
X149984285Y-73814761D01*
X149889047Y-73862380D01*
X149698571Y-73862380D01*
X151079523Y-73862380D02*
X150508095Y-73862380D01*
X150793809Y-73862380D02*
X150793809Y-72862380D01*
X150698571Y-73005238D01*
X150603333Y-73100476D01*
X150508095Y-73148095D01*
X149673333Y-80657142D02*
X149625714Y-80704761D01*
X149482857Y-80752380D01*
X149387619Y-80752380D01*
X149244761Y-80704761D01*
X149149523Y-80609523D01*
X149101904Y-80514285D01*
X149054285Y-80323809D01*
X149054285Y-80180952D01*
X149101904Y-79990476D01*
X149149523Y-79895238D01*
X149244761Y-79800000D01*
X149387619Y-79752380D01*
X149482857Y-79752380D01*
X149625714Y-79800000D01*
X149673333Y-79847619D01*
X150625714Y-80752380D02*
X150054285Y-80752380D01*
X150340000Y-80752380D02*
X150340000Y-79752380D01*
X150244761Y-79895238D01*
X150149523Y-79990476D01*
X150054285Y-80038095D01*
M02*
